<?xml version="1.0" standalone="no"?>
<!DOCTYPE svg PUBLIC "-//W3C//DTD SVG 20010904//EN"
 "http://www.w3.org/TR/2001/REC-SVG-20010904/DTD/svg10.dtd">
<svg version="1.0" xmlns="http://www.w3.org/2000/svg"
 width="1300.000000pt" height="1300.000000pt" viewBox="0 0 1300.000000 1300.000000"
 preserveAspectRatio="xMidYMid meet">
<metadata>
Created by potrace 1.15, written by Peter Selinger 2001-2017
</metadata>
<g transform="translate(0.000000,1300.000000) scale(0.100000,-0.100000)"
fill="#000000" stroke="none">
<path d="M6454 9708 l-39 -113 -117 -3 c-69 -1 -118 -7 -118 -13 0 -5 41 -39
90 -76 50 -36 90 -69 90 -72 0 -4 -16 -55 -36 -115 -19 -59 -33 -110 -30 -114
7 -6 48 14 74 37 24 22 127 91 135 91 4 0 47 -30 97 -66 55 -40 95 -63 100
-58 6 6 -5 51 -25 114 -19 57 -35 107 -35 111 0 4 40 36 90 71 49 34 89 68 90
75 0 9 -33 13 -117 15 l-117 3 -36 109 c-20 60 -41 111 -47 113 -6 2 -28 -47
-49 -109z"/>
<path d="M6345 8930 c-558 -33 -1113 -283 -1505 -679 -131 -133 -172 -178
-244 -274 -277 -367 -438 -808 -465 -1272 -31 -527 105 -1033 395 -1462 47
-70 94 -137 105 -148 11 -11 46 -51 78 -90 130 -156 394 -384 452 -391 55 -7
40 12 -85 106 -86 65 -376 339 -376 356 0 3 -31 47 -69 97 -265 354 -418 770
-452 1226 -59 781 289 1541 926 2023 731 553 1734 619 2537 166 270 -152 532
-379 701 -607 22 -29 47 -61 56 -71 9 -9 21 -25 28 -36 11 -18 11 -17 8 5 -3
14 -9 29 -15 35 -5 5 -10 15 -10 21 0 5 9 -3 19 -19 11 -16 18 -38 16 -48 -3
-12 20 -61 54 -116 321 -532 413 -1191 251 -1792 -236 -871 -934 -1518 -1825
-1690 -540 -104 -1160 7 -1613 288 -95 59 -113 65 -118 37 -3 -26 83 -81 267
-169 389 -187 770 -263 1186 -236 329 21 623 100 918 248 233 116 398 236 600
435 77 76 163 167 190 203 28 37 55 71 60 78 33 35 134 201 195 317 299 577
348 1227 139 1853 -52 157 -226 509 -269 546 -3 3 -26 34 -50 70 -158 231
-410 470 -671 634 -420 263 -904 385 -1414 356z"/>
<path d="M6217 8613 c-4 -3 -7 -49 -7 -102 l-1 -96 -30 93 -30 92 -35 0 c-30
0 -33 -2 -24 -17 12 -22 41 -203 34 -215 -3 -4 6 -8 21 -8 24 0 25 1 11 23 -7
12 -17 50 -20 85 -4 35 -9 71 -12 80 -5 14 -4 15 4 2 5 -8 20 -46 32 -85 27
-81 36 -96 55 -88 11 4 15 31 17 106 l3 102 14 -75 c8 -41 14 -87 14 -102 0
-22 5 -28 23 -28 24 0 41 16 24 22 -12 4 -43 194 -35 209 7 10 -48 13 -58 2z"/>
<path d="M6766 8605 c8 -20 -27 -208 -40 -217 -7 -5 -5 -8 6 -8 9 0 24 -3 33
-7 14 -5 16 -2 11 15 -4 11 -4 32 0 46 5 22 12 26 44 26 44 0 55 11 64 62 10
54 -5 74 -64 87 -63 14 -60 14 -54 -4z"/>
<path d="M7113 8522 c-1 -10 -17 -60 -37 -112 -26 -70 -32 -96 -23 -102 17
-11 39 -10 32 2 -8 12 16 80 27 80 13 0 28 -47 28 -86 0 -26 4 -34 18 -34 16
0 17 6 12 55 -5 46 -3 56 11 60 19 6 44 58 42 87 -2 25 -21 42 -62 56 -44 16
-46 15 -48 -6z"/>
<path d="M7424 8347 c-83 -127 -84 -181 -6 -200 23 -5 82 34 82 54 0 5 11 27
25 49 45 72 25 130 -46 130 -27 0 -38 -6 -55 -33z"/>
<path d="M5247 8212 c-16 -17 -14 -24 27 -100 48 -89 45 -92 -26 -23 -64 61
-75 66 -98 46 -18 -16 -16 -20 50 -98 38 -45 70 -88 70 -94 0 -17 15 -16 30 2
10 12 10 15 -1 16 -8 0 -41 35 -73 77 -57 75 -54 75 26 3 62 -56 78 -65 91
-52 9 9 1 31 -31 90 -23 43 -42 82 -42 86 0 8 95 -108 110 -135 8 -13 12 -12
32 9 13 13 18 21 11 17 -11 -6 -143 144 -143 164 0 16 -15 12 -33 -8z"/>
<path d="M7760 8189 c0 -14 -119 -159 -136 -166 -9 -3 -5 -12 15 -29 35 -30
71 -43 93 -35 25 9 118 129 118 152 0 11 -17 36 -37 54 -40 36 -53 42 -53 24z"/>
<path d="M6300 8133 c-423 -65 -771 -254 -1025 -556 -412 -491 -498 -1177
-218 -1742 74 -149 178 -300 276 -402 49 -51 52 -52 71 -35 21 17 21 17 3 -5
-18 -21 -18 -22 50 -78 127 -105 358 -244 458 -275 17 -5 49 -16 72 -24 80
-30 188 -55 301 -70 599 -84 1209 192 1545 697 186 280 271 562 271 897 0 162
-10 241 -50 400 -121 487 -483 900 -955 1088 -205 82 -375 113 -608 111 -91
-1 -177 -3 -191 -6z m515 -191 c182 -47 285 -89 445 -185 181 -108 369 -299
475 -482 92 -159 139 -286 181 -485 25 -118 25 -391 0 -510 -48 -232 -132
-425 -260 -600 -43 -59 -177 -202 -183 -196 -2 2 -3 254 -3 560 l0 557 -35 36
c-42 43 -43 56 -8 86 150 123 199 200 190 296 -11 127 -104 230 -292 323 -246
122 -594 179 -968 158 -248 -14 -453 -57 -630 -133 l-48 -20 43 -46 43 -46
-47 44 -46 43 -51 -27 c-82 -45 -161 -116 -200 -179 -33 -54 -36 -66 -36 -130
0 -47 6 -82 17 -102 24 -44 113 -139 153 -164 51 -31 53 -54 11 -100 l-36 -40
0 -537 0 -536 28 24 27 24 -27 -31 c-16 -16 -28 -38 -28 -48 0 -10 -5 -14 -11
-10 -6 3 -30 -11 -52 -32 l-42 -39 39 42 39 42 -67 73 c-177 194 -301 446
-352 718 -24 128 -25 371 0 495 28 145 73 279 137 404 53 105 154 253 222 327
25 27 26 29 9 49 -17 20 -17 20 3 3 20 -17 23 -16 75 33 62 58 235 176 319
218 132 67 272 112 451 145 14 2 117 3 230 1 166 -2 220 -7 285 -23z m20 -606
c109 -20 284 -72 342 -102 l41 -21 23 21 23 21 -18 -23 c-22 -25 -23 -24 23
-47 53 -27 147 -123 134 -136 -9 -9 -24 -4 -57 19 -26 16 -75 42 -111 58 l-66
27 -32 -29 -32 -29 28 31 27 30 -52 17 c-73 22 -215 52 -323 68 -131 19 -463
17 -600 -5 -109 -16 -303 -60 -313 -71 -3 -3 8 -20 24 -38 l29 -32 -36 33 -36
33 -54 -20 c-30 -12 -85 -39 -123 -61 -48 -28 -73 -37 -80 -30 -14 14 100 122
154 146 22 10 39 23 36 30 -3 7 2 10 12 7 10 -2 42 7 72 20 92 41 287 87 425
101 95 9 453 -3 540 -18z m-479 -995 l-28 -30 33 -14 c19 -8 56 -35 83 -61 27
-25 52 -46 55 -46 4 0 29 21 55 46 27 25 69 55 94 65 l45 19 -19 23 -19 22 26
-22 c17 -16 38 -23 66 -23 121 0 233 -119 233 -246 0 -18 12 -41 33 -64 32
-34 32 -35 1 -7 -37 34 -40 34 -49 0 -3 -16 -18 -44 -33 -63 -48 -65 -416
-430 -432 -430 -24 0 -432 417 -454 464 -18 37 -18 37 -39 19 l-22 -18 20 23
c13 16 18 35 16 58 -5 65 18 131 65 183 51 56 108 81 189 81 42 0 56 5 75 25
13 14 26 25 29 25 2 0 -8 -13 -23 -29z"/>
<path d="M4408 8068 c16 -16 15 -29 0 -25 -8 1 -12 -6 -10 -17 2 -10 -1 -15
-7 -11 -7 3 -8 0 -5 -9 3 -9 1 -16 -5 -16 -6 0 -11 4 -11 8 0 7 -75 52 -87 52
-2 0 -1 -5 3 -11 5 -9 -1 -10 -22 -5 -38 8 -85 13 -79 8 10 -10 -21 -30 -32
-20 -8 6 -10 3 -6 -11 3 -13 1 -21 -6 -21 -7 0 -9 6 -5 13 3 6 -5 0 -20 -15
-15 -16 -31 -28 -36 -28 -6 0 -10 -5 -10 -10 0 -6 12 -3 28 6 18 12 14 4 -15
-23 -24 -23 -43 -46 -43 -52 0 -15 -30 -14 -31 2 0 6 -5 2 -11 -10 -8 -17 -7
-25 5 -38 9 -8 18 -11 21 -6 3 5 -1 11 -9 15 -8 3 -15 11 -14 18 0 10 2 10 6
0 2 -6 9 -9 15 -6 6 4 14 0 20 -7 7 -11 8 -10 6 4 -2 11 27 47 77 98 69 69 83
79 105 73 14 -3 43 -6 65 -5 34 1 45 -4 69 -34 16 -19 34 -35 40 -35 5 0 25
14 42 31 l33 32 -33 33 c-18 19 -37 34 -42 34 -4 0 -3 -5 4 -12z"/>
<path d="M4728 7633 c-18 -22 -48 -70 -48 -78 0 -3 5 -5 12 -5 17 0 172 -92
181 -108 7 -11 12 -9 24 8 8 12 13 22 12 23 -2 2 -21 10 -41 20 -21 9 -38 24
-38 32 0 14 9 15 58 9 49 -5 60 -4 65 10 5 12 0 16 -17 16 -44 0 -86 12 -86
25 0 20 -59 65 -84 65 -13 0 -30 -8 -38 -17z"/>
<path d="M4587 7329 c-17 -10 -47 -69 -47 -93 0 -7 8 -12 18 -13 22 -2 173
-61 189 -75 9 -7 15 -3 23 17 13 34 13 35 -5 29 -9 -4 -29 -1 -45 6 -26 11
-28 15 -19 37 15 39 1 63 -48 84 -24 10 -45 19 -46 19 -1 0 -10 -5 -20 -11z"/>
<path d="M4753 5949 c-16 -16 -193 -80 -204 -74 -13 9 -11 -6 6 -35 8 -14 14
-20 15 -13 0 6 21 19 46 29 48 18 63 12 64 -27 0 -15 -57 -39 -93 -39 -14 0
-15 -4 -5 -25 8 -18 15 -22 23 -15 19 16 197 80 207 74 12 -8 9 8 -7 36 -8 14
-14 20 -15 14 0 -6 -19 -19 -41 -30 -40 -18 -42 -18 -55 1 -21 28 -13 38 39
55 47 15 54 24 39 47 -6 9 -11 10 -19 2z"/>
<path d="M8100 5661 c-8 -16 -8 -21 2 -21 7 0 42 -18 78 -41 36 -23 54 -38 40
-34 -137 36 -153 38 -167 20 -11 -16 -10 -20 6 -29 102 -58 152 -89 165 -102
18 -17 36 -11 36 12 0 8 -4 13 -8 10 -4 -2 -41 15 -82 40 -83 49 -80 53 22 24
86 -24 104 -25 111 -6 4 10 -22 31 -81 67 -48 28 -92 58 -99 66 -10 12 -13 11
-23 -6z"/>
<path d="M4870 5628 c-14 -11 -49 -34 -78 -51 -64 -36 -82 -65 -61 -103 27
-51 54 -50 145 6 46 27 88 50 94 50 8 0 8 6 0 20 -10 19 -11 19 -28 2 -31 -31
-138 -92 -161 -92 -25 0 -38 26 -25 48 14 21 153 104 164 97 13 -8 13 1 0 26
-13 24 -19 24 -50 -3z"/>
<path d="M5090 5374 c0 -11 -145 -136 -167 -144 -12 -5 -10 -9 6 -24 17 -15
21 -16 21 -4 0 14 107 114 115 107 2 -2 -17 -37 -42 -77 -41 -66 -50 -102 -24
-102 6 0 38 26 71 57 34 31 74 66 90 78 22 17 25 22 14 33 -16 15 -24 15 -24
2 0 -11 -103 -111 -108 -105 -2 2 12 27 31 57 58 92 59 93 37 113 -11 10 -20
14 -20 9z"/>
<path d="M8746 5264 c-3 -8 -10 -12 -16 -9 -5 3 -7 0 -5 -7 3 -7 -11 -29 -31
-48 -57 -53 -66 -84 -43 -144 11 -27 26 -58 34 -70 8 -11 15 -30 15 -41 0 -15
15 -26 60 -45 33 -14 60 -28 60 -31 0 -3 -12 -16 -26 -30 -25 -23 -26 -23 -55
-6 -29 16 -30 16 -27 -1 2 -9 10 -16 17 -14 7 1 19 -2 27 -9 7 -6 19 -7 26 -3
7 5 24 8 38 8 22 -1 22 0 3 3 -18 3 -20 7 -11 17 10 10 19 9 45 -7 28 -16 46
-18 119 -14 47 3 88 7 91 10 3 3 -35 3 -85 0 -60 -3 -97 -1 -112 7 -17 9 -19
14 -10 20 7 5 14 19 16 32 1 12 3 26 3 31 1 4 9 7 19 7 13 0 14 2 3 9 -10 6
-21 1 -37 -18 l-23 -26 -77 75 c-42 41 -74 67 -71 58 4 -10 2 -18 -4 -18 -7 0
-9 9 -6 21 3 13 -2 28 -14 40 -35 35 -25 70 39 131 31 31 58 63 58 72 2 20
-12 21 -20 0z"/>
<path d="M5320 5139 c0 -12 -92 -134 -122 -161 -17 -16 -17 -17 13 -42 39 -33
74 -42 95 -25 33 27 104 128 104 148 0 11 -17 36 -37 55 -40 37 -53 44 -53 25z"/>
<path d="M7370 4947 l-35 -22 20 -22 c11 -12 38 -57 60 -100 22 -43 40 -79 41
-81 1 -2 13 2 26 9 14 8 18 14 10 17 -7 2 -19 17 -27 32 -30 59 -13 66 46 19
22 -17 46 -28 54 -25 17 6 20 26 4 26 -6 0 -25 12 -42 26 -23 19 -31 34 -29
53 1 14 -7 41 -18 59 -24 39 -57 41 -110 9z"/>
<path d="M5590 4945 c0 -21 -69 -154 -91 -176 -18 -18 -18 -19 13 -35 29 -15
30 -15 24 1 -8 21 31 88 46 79 6 -4 8 -28 5 -59 -3 -33 -1 -57 6 -64 16 -16
29 -13 26 7 -1 9 -1 36 0 60 1 35 4 42 21 42 13 0 27 14 40 40 25 49 17 71
-40 100 -47 24 -50 24 -50 5z"/>
<path d="M6193 4743 c9 -14 -22 -216 -35 -224 -6 -4 13 -10 41 -14 87 -12 100
4 117 147 6 52 4 57 -17 71 -28 17 -114 34 -106 20z"/>
<path d="M6756 4741 c-12 -5 -15 -10 -9 -14 11 -7 38 -161 36 -205 -1 -17 3
-22 14 -18 8 3 21 6 28 6 11 0 11 5 -1 28 -19 37 -18 62 4 62 10 0 28 7 41 16
20 14 23 23 18 60 -2 24 -10 51 -17 59 -13 16 -80 19 -114 6z"/>
</g>
</svg>
