<?xml version="1.0" standalone="no"?>
<!DOCTYPE svg PUBLIC "-//W3C//DTD SVG 20010904//EN"
 "http://www.w3.org/TR/2001/REC-SVG-20010904/DTD/svg10.dtd">
<svg version="1.0" xmlns="http://www.w3.org/2000/svg"
 width="1280.000000pt" height="498.000000pt" viewBox="0 0 1280.000000 498.000000"
 preserveAspectRatio="xMidYMid meet">
<metadata>
Created by potrace 1.15, written by Peter Selinger 2001-2017
</metadata>
<g transform="translate(0.000000,498.000000) scale(0.100000,-0.100000)"
fill="#ffc107" stroke="none">
<path d="M5547 4769 c-81 -19 -152 -62 -228 -138 -93 -94 -139 -182 -169 -326
-25 -117 -37 -384 -23 -488 l10 -68 -61 8 c-34 4 -126 8 -206 7 -223 -2 -408
-42 -519 -113 -168 -108 -270 -333 -227 -502 56 -217 305 -296 418 -134 39 56
46 97 19 124 -12 12 -25 21 -29 21 -5 0 -32 -20 -61 -45 -62 -53 -98 -58 -152
-21 -66 45 -91 148 -49 206 45 63 230 122 230 74 0 -32 40 -82 79 -98 32 -12
51 -13 101 -5 182 29 237 133 160 306 -18 41 -18 43 -1 52 9 6 47 15 84 21 75
13 223 -1 243 -23 6 -6 19 -34 29 -62 26 -72 71 -161 118 -230 52 -78 167
-222 206 -259 17 -16 28 -33 25 -38 -3 -4 -26 -8 -51 -8 -108 0 -184 -81 -138
-146 14 -21 13 -21 -54 -27 -114 -9 -191 -53 -191 -109 0 -57 -84 -56 -135 2
-29 32 -27 102 3 132 19 20 32 23 87 21 72 -1 80 6 69 64 -8 45 -61 73 -136
73 -72 0 -117 -31 -154 -105 -23 -47 -26 -64 -21 -111 9 -92 63 -166 153 -209
l47 -23 -94 -21 c-131 -30 -335 -67 -452 -82 -130 -16 -688 -6 -892 16 -218
23 -557 83 -652 114 -207 70 -517 300 -633 471 -145 213 -172 414 -95 715 63
251 192 390 430 465 176 55 415 5 616 -130 35 -24 101 -81 146 -126 175 -178
232 -402 162 -630 -35 -114 -173 -266 -294 -324 -148 -72 -287 -62 -448 32
-132 77 -224 201 -249 336 -25 135 34 318 129 401 61 54 175 111 223 111 103
0 206 -61 253 -150 25 -47 28 -63 24 -111 -8 -90 -54 -157 -125 -180 -31 -10
-35 -8 -78 31 -40 36 -49 41 -77 35 -39 -9 -54 -20 -73 -56 -31 -61 -10 -110
63 -146 55 -26 55 -26 108 -9 30 9 87 40 127 69 62 45 78 62 108 121 32 63 35
76 35 155 0 76 -3 92 -27 133 -34 57 -105 120 -178 156 -46 23 -68 27 -136 27
-75 0 -87 -3 -168 -43 -158 -79 -240 -184 -280 -359 -31 -136 -18 -241 46
-366 75 -150 267 -283 446 -309 95 -14 219 -1 303 33 112 43 267 175 343 290
65 98 89 184 94 335 9 269 -63 453 -247 635 -86 85 -173 139 -306 192 -158 63
-204 72 -370 72 -173 0 -239 -15 -380 -88 -184 -95 -342 -322 -417 -599 -30
-110 -33 -376 -6 -476 28 -98 75 -204 134 -298 44 -70 49 -82 26 -64 -61 48
-224 152 -326 209 -144 80 -258 127 -386 159 -92 23 -125 27 -270 27 -194 0
-259 -15 -430 -96 -351 -168 -617 -441 -717 -739 -26 -78 -26 -368 0 -488 83
-380 326 -659 633 -728 216 -48 585 52 775 209 155 129 258 307 289 499 18
108 8 285 -19 370 -42 131 -196 314 -333 395 -84 51 -200 76 -322 71 -116 -6
-170 -22 -268 -82 -117 -71 -205 -169 -249 -277 -31 -76 -38 -266 -14 -359 42
-163 134 -295 238 -341 72 -33 216 -33 297 -1 119 48 200 132 221 230 14 69 0
181 -30 241 -42 81 -187 181 -264 181 -44 0 -112 -32 -127 -59 -28 -54 0 -133
54 -151 40 -13 76 1 113 44 20 22 26 24 50 15 82 -31 125 -96 126 -193 1 -70
-15 -108 -72 -165 -47 -47 -110 -66 -216 -66 -70 0 -87 4 -134 30 -131 72
-209 239 -199 426 5 108 47 198 129 279 217 215 510 225 704 26 72 -75 128
-167 158 -261 31 -99 30 -244 -1 -337 -61 -176 -238 -359 -437 -449 -83 -37
-239 -78 -339 -88 -173 -16 -267 21 -408 161 -108 108 -155 198 -189 358 -33
155 -33 367 -1 470 66 209 207 392 397 516 140 91 254 135 440 170 134 24 339
16 460 -20 199 -59 411 -188 740 -453 265 -212 363 -274 540 -343 82 -32 87
-39 18 -28 -157 26 -378 -29 -565 -139 -190 -113 -436 -381 -541 -589 -89
-176 -71 -503 44 -800 114 -294 406 -570 679 -640 93 -24 280 -22 381 5 236
61 489 275 589 495 74 163 94 364 51 526 -27 106 -106 268 -163 337 -120 145
-336 250 -533 260 -118 6 -193 -9 -302 -62 -85 -42 -141 -94 -206 -192 -70
-105 -90 -167 -95 -295 -3 -88 -1 -119 16 -175 41 -135 140 -261 244 -314 127
-64 309 -91 403 -60 98 34 173 118 215 241 26 76 22 117 -16 192 -32 63 -106
144 -156 169 -50 26 -151 49 -214 49 -87 0 -167 -77 -150 -144 12 -47 58 -86
103 -86 50 0 70 15 87 65 12 34 19 40 47 43 56 6 99 -8 139 -44 167 -151 54
-414 -179 -414 -70 0 -165 21 -221 50 -79 40 -181 169 -217 273 -25 73 -22
203 6 282 45 126 149 247 258 297 79 37 198 49 292 28 93 -20 234 -92 297
-152 112 -106 186 -276 188 -433 1 -110 -14 -176 -64 -280 -105 -219 -260
-337 -529 -406 -277 -71 -559 48 -738 311 -129 190 -192 485 -148 692 30 143
167 351 309 469 123 102 271 167 476 209 152 32 324 24 555 -25 257 -54 351
-65 580 -72 187 -5 390 4 530 23 l40 6 -30 -19 c-36 -24 -89 -82 -110 -123
-47 -90 -38 -234 22 -360 68 -143 224 -258 398 -295 134 -28 332 -40 461 -27
65 6 119 10 121 9 1 -2 -3 -34 -9 -72 -15 -100 -4 -378 20 -490 57 -267 255
-451 490 -456 83 -2 125 6 179 37 108 62 169 194 133 288 -12 34 -77 104 -111
122 -34 17 -81 18 -97 2 -21 -21 -13 -49 28 -95 54 -62 55 -106 4 -163 -58
-64 -139 -75 -200 -28 -34 28 -84 133 -84 179 0 34 3 37 46 54 29 11 53 29 65
49 44 68 1 235 -74 290 -37 27 -119 26 -201 -3 -32 -11 -62 -19 -66 -16 -20
13 -33 101 -27 198 8 133 11 142 56 155 125 38 311 152 482 298 l87 74 4 -75
c4 -85 25 -124 76 -139 24 -7 37 -5 56 8 14 9 28 16 31 16 3 0 5 -22 5 -48 0
-108 54 -212 110 -212 73 0 34 -130 -47 -154 -29 -9 -88 17 -103 45 -8 14 -10
43 -7 75 5 47 3 54 -15 60 -11 3 -35 3 -53 0 -27 -5 -38 -15 -54 -49 -98 -203
164 -347 348 -191 45 37 81 116 81 177 0 26 4 47 8 47 4 0 26 -18 47 -40 l39
-40 51 50 c28 27 54 50 58 50 4 0 7 -22 7 -48 0 -70 26 -135 72 -182 52 -55
109 -80 181 -80 71 0 111 17 156 64 30 31 35 44 39 94 7 100 -37 161 -109 150
-22 -3 -24 -8 -24 -65 0 -51 -4 -66 -23 -86 -30 -31 -68 -39 -109 -22 -43 18
-65 55 -61 102 3 35 6 38 36 41 54 5 90 76 107 209 l7 53 28 -15 c40 -21 54
-19 88 10 35 29 57 98 49 155 -3 22 -3 40 0 40 3 0 31 -23 62 -52 144 -132
333 -255 468 -304 58 -21 77 -33 85 -53 16 -41 22 -211 9 -256 -19 -68 -20
-69 -88 -46 -100 34 -136 36 -185 12 -24 -11 -54 -37 -67 -57 -24 -35 -50
-132 -51 -186 0 -38 53 -95 101 -109 38 -12 39 -12 33 -53 -28 -186 -170 -263
-281 -151 -36 35 -43 49 -43 82 0 32 8 49 45 92 42 49 45 55 32 75 -17 25 -59
32 -98 15 -42 -17 -107 -94 -120 -141 -23 -86 25 -196 113 -256 60 -41 107
-54 192 -53 209 2 396 141 474 351 50 138 77 456 53 627 l-7 53 55 -8 c31 -4
130 -6 221 -6 128 1 189 6 270 23 261 55 419 197 466 421 32 150 -7 260 -121
348 -29 23 -29 23 -5 18 87 -17 336 -28 524 -23 231 7 324 18 581 72 302 64
500 58 735 -22 235 -79 428 -248 546 -476 73 -141 89 -267 59 -453 -50 -312
-210 -546 -450 -660 -185 -88 -354 -86 -593 6 -164 63 -289 182 -372 355 -50
104 -65 170 -64 280 2 157 76 327 188 433 63 60 204 132 297 152 94 21 213 9
292 -28 109 -50 213 -171 258 -297 28 -79 31 -209 6 -282 -36 -104 -138 -233
-217 -273 -56 -29 -151 -50 -221 -50 -233 0 -346 263 -179 414 40 36 83 50
139 44 28 -3 35 -9 47 -43 17 -50 37 -65 87 -65 45 0 91 39 103 86 17 67 -63
144 -150 144 -63 0 -164 -23 -214 -49 -50 -25 -124 -106 -156 -169 -38 -75
-42 -116 -16 -192 42 -123 117 -207 215 -241 94 -31 276 -4 403 60 104 53 203
179 244 314 27 89 22 252 -10 340 -26 71 -102 188 -160 244 -51 50 -161 106
-252 129 -220 55 -539 -59 -698 -249 -57 -69 -136 -231 -163 -337 -42 -164
-23 -363 51 -526 100 -220 353 -434 589 -495 101 -27 288 -29 381 -5 273 70
565 346 679 640 116 301 133 625 41 805 -105 206 -350 472 -537 583 -188 111
-409 166 -565 140 -32 -5 -55 -5 -52 0 3 4 11 8 17 8 21 0 203 86 284 134 43
25 177 124 298 221 343 275 550 402 750 461 121 36 326 44 460 20 186 -35 300
-79 440 -170 190 -124 331 -307 397 -516 32 -103 32 -315 -1 -470 -34 -160
-81 -250 -189 -358 -141 -140 -235 -177 -408 -161 -233 23 -433 112 -593 263
-222 211 -270 497 -124 745 129 219 355 319 564 248 146 -50 269 -152 328
-272 97 -196 17 -482 -160 -580 -49 -27 -62 -30 -144 -30 -72 1 -101 6 -143
25 -92 40 -150 139 -136 232 13 84 56 140 128 168 23 8 30 6 49 -16 61 -71
134 -65 169 13 19 43 19 45 1 80 -21 43 -73 73 -126 73 -93 0 -240 -110 -278
-208 -32 -84 -32 -210 -1 -274 59 -120 228 -207 382 -196 162 12 267 110 342
318 20 57 23 83 23 210 -1 127 -3 152 -23 199 -46 109 -134 206 -250 277 -98
60 -152 76 -268 82 -122 5 -238 -20 -322 -71 -80 -47 -205 -168 -262 -254 -77
-115 -95 -186 -95 -368 0 -172 13 -233 74 -360 112 -234 319 -393 607 -466
233 -59 382 -49 553 37 230 115 400 357 468 666 26 120 26 410 0 488 -100 298
-366 571 -717 739 -171 81 -236 96 -430 96 -145 0 -178 -4 -270 -27 -128 -32
-242 -79 -386 -159 -103 -58 -264 -160 -328 -211 -28 -21 -28 -19 11 37 210
310 233 663 68 1012 -117 248 -263 382 -495 455 -66 20 -94 23 -230 22 -139 0
-164 -3 -245 -28 -126 -38 -298 -124 -376 -189 -121 -101 -223 -254 -271 -407
-20 -65 -23 -96 -23 -230 0 -209 27 -298 132 -432 106 -135 257 -234 403 -264
161 -32 303 -4 443 89 112 75 170 139 220 245 36 76 41 98 45 174 7 148 -42
307 -123 397 -45 50 -152 122 -220 147 -33 13 -76 19 -125 19 -63 0 -84 -5
-133 -30 -67 -33 -156 -114 -182 -165 -13 -24 -18 -58 -18 -115 -1 -137 48
-223 171 -302 83 -53 128 -66 180 -52 88 24 123 89 88 158 -19 36 -34 47 -73
56 -28 6 -37 1 -78 -36 l-45 -42 -41 18 c-169 77 -152 313 29 402 121 59 245
28 368 -92 64 -63 95 -124 115 -229 31 -163 -36 -337 -170 -442 -234 -184
-472 -173 -677 31 -104 104 -149 190 -164 318 -19 160 11 288 101 421 143 214
431 375 677 379 100 1 166 -15 278 -69 160 -76 245 -177 304 -360 39 -124 64
-297 57 -405 -17 -261 -181 -490 -502 -702 -185 -122 -268 -152 -560 -201
-316 -53 -472 -67 -840 -73 -370 -6 -430 -1 -744 63 -226 46 -225 46 -168 68
57 22 138 107 155 163 27 89 5 172 -61 230 -49 43 -96 51 -164 28 -29 -10 -57
-23 -62 -29 -13 -18 -21 -59 -14 -84 5 -21 9 -22 62 -16 51 5 60 4 85 -17 39
-34 46 -94 15 -133 -49 -63 -139 -68 -139 -8 0 55 -75 99 -187 109 -60 6 -64
8 -58 27 16 52 16 67 0 92 -23 35 -73 54 -146 54 l-61 0 63 68 c141 152 255
330 309 479 l22 62 56 12 c66 13 238 8 268 -9 l21 -11 -23 -68 c-46 -133 -23
-217 69 -262 65 -32 151 -44 191 -27 39 17 75 55 85 92 7 27 11 29 53 28 55
-2 136 -42 172 -84 47 -57 32 -148 -34 -204 -60 -50 -97 -46 -169 19 -44 40
-72 41 -92 3 -27 -51 69 -179 146 -194 141 -26 287 92 311 252 10 66 -13 181
-52 263 -79 163 -227 263 -449 302 -131 23 -338 30 -464 16 -69 -8 -73 -7 -66
10 4 10 10 97 12 193 9 331 -44 519 -188 663 -96 96 -187 138 -315 145 -105 5
-152 -7 -223 -58 -48 -35 -97 -116 -105 -174 -15 -98 63 -211 154 -223 79 -11
91 35 30 104 -55 63 -56 109 -2 163 61 61 132 71 194 28 39 -27 90 -136 86
-184 -3 -33 -7 -39 -34 -46 -18 -4 -46 -25 -64 -45 -31 -35 -32 -39 -27 -100
9 -121 83 -223 161 -223 17 0 63 9 101 20 100 30 98 30 113 -15 14 -41 12
-251 -2 -286 -4 -9 -44 -30 -90 -47 -137 -53 -304 -162 -453 -296 -33 -31 -63
-56 -66 -56 -3 0 -3 17 0 38 7 51 -13 119 -43 149 -20 20 -33 24 -62 21 -20
-3 -45 -8 -54 -12 -16 -7 -18 -2 -18 41 0 108 -57 220 -107 210 -18 -3 -27 1
-35 19 -14 31 -2 71 32 105 39 39 99 41 136 3 23 -22 26 -31 22 -87 -3 -62 -3
-62 26 -65 50 -6 75 6 96 48 23 46 26 119 6 158 -59 113 -223 136 -340 47 -56
-42 -87 -104 -94 -181 l-5 -66 -58 58 -59 58 -38 -37 c-44 -43 -52 -45 -52
-14 0 46 -32 117 -71 156 -49 49 -100 73 -165 79 -121 10 -214 -65 -214 -173
0 -88 46 -143 111 -133 22 3 24 7 24 66 0 57 3 66 28 88 43 36 100 33 138 -8
26 -27 30 -38 27 -77 -2 -34 -7 -45 -17 -43 -57 12 -101 -54 -120 -178 -13
-82 -16 -89 -33 -72 -7 7 -27 12 -45 12 -60 0 -103 -68 -103 -162 0 -21 -2
-38 -5 -38 -3 0 -47 35 -97 78 -171 142 -249 192 -403 257 l-100 42 -12 49
c-26 111 -4 304 33 290 73 -28 161 -48 194 -43 85 11 143 92 156 217 6 61 5
68 -20 97 -15 17 -46 39 -70 48 l-43 16 9 57 c9 59 41 123 76 155 54 49 142
39 204 -23 54 -54 53 -100 -2 -163 -57 -65 -51 -107 16 -107 31 0 96 37 122
69 98 120 41 291 -122 367 -41 19 -67 24 -131 23 -44 -1 -97 -5 -118 -10z
m1886 -501 c7 -21 -4 -38 -23 -38 -10 0 -20 6 -23 13 -7 20 4 37 23 37 10 0
20 -6 23 -12z m715 -694 c2 -12 -4 -24 -12 -27 -19 -7 -40 18 -32 39 8 22 40
13 44 -12z m-693 -83 c-47 -88 -164 -253 -243 -341 l-41 -45 -77 76 -77 77 41
36 c61 56 130 108 213 164 85 57 221 133 227 127 2 -2 -17 -44 -43 -94z
m-2067 55 c122 -61 382 -248 382 -274 0 -4 -34 -41 -75 -82 l-75 -75 -25 30
c-46 54 -140 179 -166 220 -34 52 -119 203 -119 210 0 9 9 6 78 -29z m-711
-1172 c-3 -3 -12 -4 -19 -1 -8 3 -5 6 6 6 11 1 17 -2 13 -5z m3470 0 c-3 -3
-12 -4 -19 -1 -8 3 -5 6 6 6 11 1 17 -2 13 -5z m-3524 -11 c-7 -2 -21 -2 -30
0 -10 3 -4 5 12 5 17 0 24 -2 18 -5z m3590 0 c-7 -2 -21 -2 -30 0 -10 3 -4 5
12 5 17 0 24 -2 18 -5z m-3660 -10 c-7 -2 -21 -2 -30 0 -10 3 -4 5 12 5 17 0
24 -2 18 -5z m3730 0 c-7 -2 -21 -2 -30 0 -10 3 -4 5 12 5 17 0 24 -2 18 -5z
m-4179 -14 c240 -2 267 -3 186 -11 -101 -10 -478 -2 -570 12 -49 8 -46 8 24 4
43 -2 205 -5 360 -5z m364 4 c-10 -2 -26 -2 -35 0 -10 3 -2 5 17 5 19 0 27 -2
18 -5z m3900 0 c-10 -2 -26 -2 -35 0 -10 3 -2 5 17 5 19 0 27 -2 18 -5z m707
-3 c-116 -16 -382 -23 -520 -14 -137 9 -134 9 170 14 171 3 333 6 360 6 50 1
50 1 -10 -6z m-4238 -76 c-3 -3 -12 -4 -19 -1 -8 3 -5 6 6 6 11 1 17 -2 13 -5z
m3150 0 c-3 -3 -12 -4 -19 -1 -8 3 -5 6 6 6 11 1 17 -2 13 -5z m-3204 -14
c-42 -17 -277 -59 -418 -74 -77 -9 -187 -23 -245 -31 -121 -17 -346 -19 -470
-5 -90 10 -293 51 -286 57 2 2 55 -3 117 -11 173 -24 417 -34 584 -25 90 5
258 26 420 53 149 24 281 44 295 44 25 1 25 1 3 -8z m3522 -36 c166 -26 352
-49 435 -53 165 -9 411 1 579 24 62 9 115 14 117 12 7 -6 -196 -47 -286 -57
-124 -14 -349 -12 -470 5 -58 8 -168 22 -245 31 -141 15 -376 57 -418 74 -36
15 -14 12 288 -36z m-3131 -58 c28 -14 68 -27 89 -30 116 -18 109 -15 92 -39
-48 -68 24 -140 141 -141 l62 0 -70 -79 c-144 -164 -226 -289 -288 -444 -19
-45 -40 -85 -47 -87 -7 -3 -51 -10 -96 -16 -83 -10 -149 -4 -209 19 l-28 10
19 43 c30 72 43 145 31 188 -20 75 -120 130 -238 130 -48 0 -58 -4 -88 -34
-19 -19 -37 -48 -40 -65 -6 -27 -11 -31 -40 -31 -57 0 -139 37 -178 80 -30 34
-36 47 -36 86 0 70 43 134 105 154 40 13 67 3 120 -44 22 -20 48 -36 57 -36
27 0 51 44 43 78 -9 42 -72 111 -119 133 -37 16 -38 18 -16 23 14 3 99 19 190
37 91 17 171 34 178 36 7 3 12 -3 12 -16 0 -55 55 -137 112 -167 62 -32 186 0
200 52 4 16 5 41 2 56 -5 27 -7 27 -63 22 -51 -6 -60 -4 -84 17 -15 13 -28 35
-29 49 -3 22 4 27 72 51 72 26 75 26 84 8 5 -11 32 -30 60 -43z m2612 30 c61
-21 69 -26 66 -47 -1 -13 -14 -35 -29 -48 -24 -21 -33 -23 -84 -17 -53 5 -57
4 -63 -17 -15 -62 27 -107 117 -121 81 -13 179 66 194 156 4 31 9 38 22 33 9
-4 88 -20 176 -37 88 -17 166 -32 174 -35 9 -2 -4 -15 -31 -32 -34 -22 -53
-44 -74 -86 -25 -53 -27 -60 -13 -84 22 -39 42 -37 98 13 58 51 96 59 143 28
49 -32 72 -71 76 -132 4 -49 1 -60 -22 -87 -34 -41 -119 -82 -175 -85 -42 -3
-45 -1 -53 28 -4 18 -25 46 -45 64 -35 31 -39 32 -107 28 -83 -6 -139 -30
-184 -83 -28 -31 -32 -43 -32 -93 0 -37 9 -78 25 -116 13 -33 23 -61 22 -63
-2 -1 -32 -10 -68 -19 -47 -12 -85 -15 -146 -10 -122 9 -124 10 -167 115 -21
50 -62 130 -93 178 -56 90 -177 245 -232 297 -17 17 -31 32 -31 36 0 3 16 4
35 2 129 -15 225 67 170 144 -14 21 -13 21 55 26 73 6 173 45 184 73 7 19 10
19 92 -9z m-459 -495 c70 -97 176 -277 171 -292 -3 -10 -226 114 -303 169 -27
20 -83 63 -123 95 l-74 60 84 84 83 84 50 -57 c28 -31 78 -95 112 -143z
m-1590 -18 c-56 -51 -169 -136 -237 -178 -75 -48 -183 -105 -188 -101 -7 7 73
151 135 243 30 45 84 116 120 159 l65 76 78 -77 78 -77 -51 -45z"/>
<path d="M4424 4691 c-22 -10 -50 -31 -62 -46 l-22 -28 -39 28 c-72 49 -105
14 -51 -55 l32 -40 -32 -26 c-42 -35 -60 -74 -60 -127 0 -65 36 -90 181 -127
46 -12 88 -25 92 -29 5 -5 -29 -10 -75 -13 -109 -6 -162 -29 -166 -75 -2 -22
3 -38 18 -53 21 -21 21 -22 3 -42 -24 -26 -23 -129 1 -176 44 -86 215 -126
232 -55 10 37 -4 53 -64 75 -64 24 -79 47 -63 99 22 72 109 106 228 90 51 -7
96 -24 180 -67 110 -56 114 -57 133 -39 30 27 25 50 -30 160 -95 188 -91 338
10 390 63 32 98 14 121 -63 14 -49 46 -70 79 -52 40 22 34 127 -12 185 -45 57
-155 82 -219 50 -27 -15 -31 -14 -59 6 -25 19 -33 21 -55 11 -35 -16 -64 -84
-73 -174 l-8 -73 -17 67 c-52 204 -96 247 -203 199z m95 -254 c64 -30 136
-105 171 -179 47 -100 40 -107 -56 -58 -101 50 -177 141 -209 249 -7 22 -5 23
20 17 15 -4 48 -17 74 -29z"/>
<path d="M8257 4684 c-24 -24 -41 -66 -83 -209 l-18 -60 -7 83 c-7 94 -30 154
-65 173 -21 11 -28 10 -55 -10 -29 -22 -32 -22 -64 -7 -119 57 -255 -32 -255
-168 0 -52 22 -81 54 -72 12 3 24 6 28 6 3 0 14 23 23 50 9 28 23 57 32 65 24
24 69 18 106 -15 50 -43 60 -76 55 -173 -4 -72 -9 -92 -47 -167 -24 -46 -49
-93 -57 -104 -8 -11 -14 -30 -14 -42 0 -23 29 -54 51 -54 8 0 65 26 127 57
105 54 119 58 193 62 43 1 90 0 104 -3 37 -9 93 -63 100 -97 10 -42 -12 -70
-71 -89 -37 -13 -51 -23 -59 -44 -15 -42 3 -60 63 -64 59 -3 118 21 151 64 43
54 52 167 17 202 -13 14 -12 18 9 44 31 36 31 40 2 73 -25 30 -109 54 -192 56
-50 1 -50 1 61 37 125 42 161 62 175 98 15 40 -7 102 -52 147 l-39 39 30 36
c64 78 10 109 -68 39 l-22 -21 -38 37 c-62 60 -133 73 -175 31z m123 -243
c-28 -98 -107 -188 -209 -239 -85 -42 -92 -42 -79 6 14 54 52 114 103 165 47
47 134 96 172 97 19 0 21 -3 13 -29z"/>
<path d="M8362 1180 c-56 -23 -37 -77 39 -105 68 -27 84 -58 54 -112 -35 -64
-65 -78 -163 -77 -102 1 -155 18 -265 81 -75 42 -79 44 -103 28 -13 -8 -24
-25 -24 -38 0 -12 22 -67 50 -122 71 -141 88 -250 51 -332 -21 -46 -62 -73
-109 -73 -36 0 -45 10 -69 75 -18 48 -20 50 -58 50 -34 0 -39 -3 -47 -30 -19
-68 33 -174 98 -201 45 -19 134 -18 162 2 21 14 24 14 48 -5 15 -12 35 -21 44
-21 19 0 69 53 71 73 0 7 6 50 13 97 l12 85 17 -67 c24 -96 56 -177 78 -199
38 -38 135 -17 187 41 l28 30 34 -25 c68 -50 104 -13 51 53 l-30 38 39 37 c25
25 42 53 49 82 21 85 -19 120 -189 166 l-85 23 70 8 c157 18 223 77 152 137
-13 10 -12 17 4 48 49 96 -5 220 -108 251 -47 14 -69 14 -101 2z m-195 -400
c93 -53 194 -168 218 -247 8 -28 1 -29 -70 -2 -74 28 -155 107 -195 191 -47
99 -40 108 47 58z"/>
<path d="M4319 1157 c-24 -13 -54 -38 -65 -55 -38 -55 -41 -146 -8 -197 12
-18 11 -23 -6 -38 -11 -9 -20 -27 -20 -40 0 -48 57 -76 175 -86 l80 -7 -116
-37 c-146 -46 -169 -63 -169 -123 0 -54 18 -92 60 -128 l32 -26 -25 -30 c-33
-39 -43 -70 -26 -81 23 -14 37 -10 74 22 l36 32 32 -33 c52 -53 122 -74 168
-50 26 14 55 74 80 167 30 111 35 115 42 29 10 -137 66 -209 122 -156 22 20
25 21 53 6 40 -21 125 -20 169 1 64 30 112 132 95 198 -7 24 -14 31 -41 33
-42 4 -56 -8 -71 -64 -7 -24 -21 -49 -31 -54 -46 -25 -104 0 -138 60 -21 37
-23 51 -19 127 4 79 8 92 62 196 31 62 56 119 56 128 0 18 -31 49 -48 49 -7 0
-60 -25 -120 -56 -124 -64 -202 -82 -287 -64 -92 19 -154 111 -106 159 11 11
33 23 48 27 48 11 73 32 73 62 0 16 -5 33 -12 40 -20 20 -101 14 -149 -11z
m406 -369 c-15 -52 -58 -128 -96 -171 -37 -43 -123 -94 -187 -112 -21 -6 -23
-4 -17 17 37 124 134 229 254 273 50 19 53 18 46 -7z"/>
</g>
</svg>
